<svg xmlns="http://www.w3.org/2000/svg" viewBox="0 0 96 96" color="#111111" role="img" aria-labelledby="title desc">
  <title id="title">薄款外套</title>
  <desc id="desc">mens_outer_light_jacket，独立品类轮廓，可通过 currentColor 着色。</desc>
  <defs><mask id="details"><rect width="96" height="96" fill="#fff"/>
      <polyline points="48,25 48,74" fill="none" stroke="#000" stroke-width="3" stroke-linecap="round" stroke-linejoin="round"/>
      <polyline points="33,54 42,47" fill="none" stroke="#000" stroke-width="4" stroke-linecap="round" stroke-linejoin="round"/>
      <polyline points="63,54 54,47" fill="none" stroke="#000" stroke-width="4" stroke-linecap="round" stroke-linejoin="round"/>
      <polyline points="31,69 65,69" fill="none" stroke="#000" stroke-width="3" stroke-linecap="round" stroke-linejoin="round"/>
  </mask></defs>
  <g mask="url(#details)">
    <polygon points="26,25 38,16 43,27 53,27 58,16 70,25 89,49 77,62 67,46 66,74 30,74 29,46 19,62 7,49" fill="currentColor"/>
    <rect x="37" y="12" width="11" height="19" rx="3" fill="currentColor"/>
    <rect x="48" y="12" width="11" height="19" rx="3" fill="currentColor"/>
    <rect x="28" y="68" width="40" height="10" rx="3" fill="currentColor"/>
  </g>
</svg>
