<svg xmlns="http://www.w3.org/2000/svg" viewBox="0 0 96 96" color="#111111" role="img" aria-labelledby="title desc">
  <title id="title">男式厚针织衫</title><desc id="desc">圆领、厚实衣身和简化罗纹构成的面性男式针织衫，可通过 currentColor 着色。</desc>
  <defs><mask id="details"><rect width="96" height="96" fill="#fff"/><ellipse cx="48" cy="20" rx="10" ry="8" fill="#000"/><path d="M31 76h34M18 57l9 5m51-5-9 5" fill="none" stroke="#000" stroke-width="3" stroke-linecap="round"/></mask></defs>
  <path d="M28 25c5-5 12-8 20-8s15 3 20 8l18 25c2 3 2 6-1 8l-7 5c-3 2-6 1-8-2l-5-8v31H31V53l-5 8c-2 3-5 4-8 2l-7-5c-3-2-3-5-1-8Z" fill="currentColor" mask="url(#details)"/>
</svg>
